<mxfile host="app.diagrams.net" agent="Mozilla/5.0 (Macintosh; Intel Mac OS X 10_15_7) AppleWebKit/537.36 (KHTML, like Gecko) Chrome/130.0.0.0 Safari/537.36" version="24.8.6">
  <diagram name="ページ1" id="090SEisknOhfve-LK_Bj">
    <mxGraphModel dx="1158" dy="735" grid="0" gridSize="10" guides="1" tooltips="1" connect="1" arrows="1" fold="1" page="1" pageScale="1" pageWidth="827" pageHeight="1169" math="0" shadow="0">
      <root>
        <mxCell id="0" />
        <mxCell id="1" parent="0" />
        <mxCell id="5ZSdOxLQI6_4lzdXcl5y-1" value="API Gateway&lt;div&gt;(WebSocket API)&lt;/div&gt;" style="sketch=0;points=[[0,0,0],[0.25,0,0],[0.5,0,0],[0.75,0,0],[1,0,0],[0,1,0],[0.25,1,0],[0.5,1,0],[0.75,1,0],[1,1,0],[0,0.25,0],[0,0.5,0],[0,0.75,0],[1,0.25,0],[1,0.5,0],[1,0.75,0]];outlineConnect=0;fontColor=#232F3E;fillColor=#E7157B;strokeColor=#ffffff;dashed=0;verticalLabelPosition=bottom;verticalAlign=top;align=center;html=1;fontSize=12;fontStyle=0;aspect=fixed;shape=mxgraph.aws4.resourceIcon;resIcon=mxgraph.aws4.api_gateway;" vertex="1" parent="1">
          <mxGeometry x="190" y="212" width="70" height="70" as="geometry" />
        </mxCell>
        <mxCell id="5ZSdOxLQI6_4lzdXcl5y-8" style="edgeStyle=orthogonalEdgeStyle;rounded=0;orthogonalLoop=1;jettySize=auto;html=1;" edge="1" parent="1" source="5ZSdOxLQI6_4lzdXcl5y-2" target="5ZSdOxLQI6_4lzdXcl5y-6">
          <mxGeometry relative="1" as="geometry" />
        </mxCell>
        <mxCell id="5ZSdOxLQI6_4lzdXcl5y-12" value="InvokeModelWithResponseStream" style="edgeLabel;html=1;align=center;verticalAlign=middle;resizable=0;points=[];" vertex="1" connectable="0" parent="5ZSdOxLQI6_4lzdXcl5y-8">
          <mxGeometry x="0.1304" y="3" relative="1" as="geometry">
            <mxPoint x="-17" y="-8" as="offset" />
          </mxGeometry>
        </mxCell>
        <mxCell id="5ZSdOxLQI6_4lzdXcl5y-2" value="SendTextHandler" style="sketch=0;points=[[0,0,0],[0.25,0,0],[0.5,0,0],[0.75,0,0],[1,0,0],[0,1,0],[0.25,1,0],[0.5,1,0],[0.75,1,0],[1,1,0],[0,0.25,0],[0,0.5,0],[0,0.75,0],[1,0.25,0],[1,0.5,0],[1,0.75,0]];outlineConnect=0;fontColor=#232F3E;fillColor=#ED7100;strokeColor=#ffffff;dashed=0;verticalLabelPosition=bottom;verticalAlign=top;align=center;html=1;fontSize=12;fontStyle=0;aspect=fixed;shape=mxgraph.aws4.resourceIcon;resIcon=mxgraph.aws4.lambda;" vertex="1" parent="1">
          <mxGeometry x="439" y="212" width="70" height="70" as="geometry" />
        </mxCell>
        <mxCell id="5ZSdOxLQI6_4lzdXcl5y-3" value="ConnectHandler" style="sketch=0;points=[[0,0,0],[0.25,0,0],[0.5,0,0],[0.75,0,0],[1,0,0],[0,1,0],[0.25,1,0],[0.5,1,0],[0.75,1,0],[1,1,0],[0,0.25,0],[0,0.5,0],[0,0.75,0],[1,0.25,0],[1,0.5,0],[1,0.75,0]];outlineConnect=0;fontColor=#232F3E;fillColor=#ED7100;strokeColor=#ffffff;dashed=0;verticalLabelPosition=bottom;verticalAlign=top;align=center;html=1;fontSize=12;fontStyle=0;aspect=fixed;shape=mxgraph.aws4.resourceIcon;resIcon=mxgraph.aws4.lambda;" vertex="1" parent="1">
          <mxGeometry x="441" y="89" width="70" height="70" as="geometry" />
        </mxCell>
        <mxCell id="5ZSdOxLQI6_4lzdXcl5y-4" value="DisconnectHandler" style="sketch=0;points=[[0,0,0],[0.25,0,0],[0.5,0,0],[0.75,0,0],[1,0,0],[0,1,0],[0.25,1,0],[0.5,1,0],[0.75,1,0],[1,1,0],[0,0.25,0],[0,0.5,0],[0,0.75,0],[1,0.25,0],[1,0.5,0],[1,0.75,0]];outlineConnect=0;fontColor=#232F3E;fillColor=#ED7100;strokeColor=#ffffff;dashed=0;verticalLabelPosition=bottom;verticalAlign=top;align=center;html=1;fontSize=12;fontStyle=0;aspect=fixed;shape=mxgraph.aws4.resourceIcon;resIcon=mxgraph.aws4.lambda;" vertex="1" parent="1">
          <mxGeometry x="441" y="343" width="70" height="70" as="geometry" />
        </mxCell>
        <mxCell id="5ZSdOxLQI6_4lzdXcl5y-5" value="DefaultHandler" style="sketch=0;points=[[0,0,0],[0.25,0,0],[0.5,0,0],[0.75,0,0],[1,0,0],[0,1,0],[0.25,1,0],[0.5,1,0],[0.75,1,0],[1,1,0],[0,0.25,0],[0,0.5,0],[0,0.75,0],[1,0.25,0],[1,0.5,0],[1,0.75,0]];outlineConnect=0;fontColor=#232F3E;fillColor=#ED7100;strokeColor=#ffffff;dashed=0;verticalLabelPosition=bottom;verticalAlign=top;align=center;html=1;fontSize=12;fontStyle=0;aspect=fixed;shape=mxgraph.aws4.resourceIcon;resIcon=mxgraph.aws4.lambda;" vertex="1" parent="1">
          <mxGeometry x="441" y="470" width="70" height="70" as="geometry" />
        </mxCell>
        <mxCell id="5ZSdOxLQI6_4lzdXcl5y-6" value="Bedrock" style="sketch=0;points=[[0,0,0],[0.25,0,0],[0.5,0,0],[0.75,0,0],[1,0,0],[0,1,0],[0.25,1,0],[0.5,1,0],[0.75,1,0],[1,1,0],[0,0.25,0],[0,0.5,0],[0,0.75,0],[1,0.25,0],[1,0.5,0],[1,0.75,0]];outlineConnect=0;fontColor=#232F3E;fillColor=#01A88D;strokeColor=#ffffff;dashed=0;verticalLabelPosition=bottom;verticalAlign=top;align=center;html=1;fontSize=12;fontStyle=0;aspect=fixed;shape=mxgraph.aws4.resourceIcon;resIcon=mxgraph.aws4.bedrock;" vertex="1" parent="1">
          <mxGeometry x="703" y="212" width="70" height="70" as="geometry" />
        </mxCell>
        <mxCell id="5ZSdOxLQI6_4lzdXcl5y-7" style="edgeStyle=orthogonalEdgeStyle;rounded=0;orthogonalLoop=1;jettySize=auto;html=1;entryX=0;entryY=0.5;entryDx=0;entryDy=0;entryPerimeter=0;" edge="1" parent="1" source="5ZSdOxLQI6_4lzdXcl5y-1" target="5ZSdOxLQI6_4lzdXcl5y-2">
          <mxGeometry relative="1" as="geometry" />
        </mxCell>
        <mxCell id="5ZSdOxLQI6_4lzdXcl5y-9" style="edgeStyle=orthogonalEdgeStyle;rounded=0;orthogonalLoop=1;jettySize=auto;html=1;entryX=0;entryY=0.5;entryDx=0;entryDy=0;entryPerimeter=0;" edge="1" parent="1" source="5ZSdOxLQI6_4lzdXcl5y-1" target="5ZSdOxLQI6_4lzdXcl5y-3">
          <mxGeometry relative="1" as="geometry" />
        </mxCell>
        <mxCell id="5ZSdOxLQI6_4lzdXcl5y-10" style="edgeStyle=orthogonalEdgeStyle;rounded=0;orthogonalLoop=1;jettySize=auto;html=1;entryX=0;entryY=0.75;entryDx=0;entryDy=0;entryPerimeter=0;" edge="1" parent="1" source="5ZSdOxLQI6_4lzdXcl5y-1" target="5ZSdOxLQI6_4lzdXcl5y-4">
          <mxGeometry relative="1" as="geometry" />
        </mxCell>
        <mxCell id="5ZSdOxLQI6_4lzdXcl5y-11" style="edgeStyle=orthogonalEdgeStyle;rounded=0;orthogonalLoop=1;jettySize=auto;html=1;entryX=0;entryY=0.5;entryDx=0;entryDy=0;entryPerimeter=0;" edge="1" parent="1" source="5ZSdOxLQI6_4lzdXcl5y-1" target="5ZSdOxLQI6_4lzdXcl5y-5">
          <mxGeometry relative="1" as="geometry" />
        </mxCell>
        <mxCell id="5ZSdOxLQI6_4lzdXcl5y-13" value="$connect" style="text;html=1;align=center;verticalAlign=middle;whiteSpace=wrap;rounded=0;" vertex="1" parent="1">
          <mxGeometry x="366" y="94" width="60" height="30" as="geometry" />
        </mxCell>
        <mxCell id="5ZSdOxLQI6_4lzdXcl5y-15" value="sendtext" style="text;html=1;align=center;verticalAlign=middle;whiteSpace=wrap;rounded=0;" vertex="1" parent="1">
          <mxGeometry x="366" y="217" width="60" height="30" as="geometry" />
        </mxCell>
        <mxCell id="5ZSdOxLQI6_4lzdXcl5y-16" value="$disconnect" style="text;html=1;align=center;verticalAlign=middle;whiteSpace=wrap;rounded=0;" vertex="1" parent="1">
          <mxGeometry x="366" y="365" width="60" height="30" as="geometry" />
        </mxCell>
        <mxCell id="5ZSdOxLQI6_4lzdXcl5y-17" value="$default" style="text;html=1;align=center;verticalAlign=middle;whiteSpace=wrap;rounded=0;" vertex="1" parent="1">
          <mxGeometry x="366" y="476" width="60" height="30" as="geometry" />
        </mxCell>
        <mxCell id="5ZSdOxLQI6_4lzdXcl5y-19" value="" style="endArrow=classic;html=1;rounded=0;exitX=0;exitY=0.75;exitDx=0;exitDy=0;exitPerimeter=0;" edge="1" parent="1" source="5ZSdOxLQI6_4lzdXcl5y-2">
          <mxGeometry width="50" height="50" relative="1" as="geometry">
            <mxPoint x="444" y="318" as="sourcePoint" />
            <mxPoint x="261" y="265" as="targetPoint" />
          </mxGeometry>
        </mxCell>
        <mxCell id="5ZSdOxLQI6_4lzdXcl5y-20" value="Response(チャンク毎)" style="edgeLabel;html=1;align=center;verticalAlign=middle;resizable=0;points=[];" vertex="1" connectable="0" parent="5ZSdOxLQI6_4lzdXcl5y-19">
          <mxGeometry x="0.3278" relative="1" as="geometry">
            <mxPoint x="36" y="8" as="offset" />
          </mxGeometry>
        </mxCell>
      </root>
    </mxGraphModel>
  </diagram>
</mxfile>
